<svg width="104" height="85" viewBox="0 0 104 85" fill="none" xmlns="http://www.w3.org/2000/svg">
<path d="M93.6 0H10.4C7.64175 0 4.99647 0.895533 3.04609 2.48959C1.09571 4.08365 0 6.24566 0 8.5V59.5C0 61.7543 1.09571 63.9163 3.04609 65.5104C4.99647 67.1045 7.64175 68 10.4 68H41.6V76.5H26V85H78V76.5H62.4V68H93.6C96.3582 68 99.0035 67.1045 100.954 65.5104C102.904 63.9163 104 61.7543 104 59.5V8.5C104 6.24566 102.904 4.08365 100.954 2.48959C99.0035 0.895533 96.3582 0 93.6 0ZM93.6 59.5H10.4V8.5H93.6V59.5Z" fill="#4F4F4F"/>
</svg>
