<svg width="146" height="114" viewBox="0 0 146 114" fill="none" xmlns="http://www.w3.org/2000/svg">
<path d="M24.3333 114V96.4615H8.11111V114H0V70.1538H8.11111V87.6923H24.3333V70.1538H32.4444V114H24.3333ZM48.6667 114V78.9231H37.3111V70.1538H67.3222V78.9231H56.7778V114H48.6667ZM73 114V70.1538H81.1111L92.4667 99.9692H93.2778L105.444 70.1538H113.556V114H105.444V86.8154H104.633L95.7111 108.738H90.8444L81.9222 86.8154H81.1111V114H73ZM146 114H121.667V70.1538H129.778V105.231H146V114ZM68.1333 10.5231L49.4778 30.6923L68.1333 50.8615L63.2667 61.3846L34.8778 30.6923L63.2667 0L68.1333 10.5231ZM77.8667 50.8615L96.5222 30.6923L77.8667 10.5231L82.7333 0L111.122 30.6923L82.7333 61.3846L77.8667 50.8615Z" fill="#4F4F4F"/>
</svg>
