<svg width="211" height="181" viewBox="0 0 211 181" fill="none" xmlns="http://www.w3.org/2000/svg">
<path d="M65.9551 0H88.62V8.12992H75.4325V16.2598H88.62V24.3897H65.9551V0ZM93.1477 0H115.821V7.07408H102.634V8.48437H115.821V24.7442H93.1477V17.3232H106.335V15.9054H93.1477V0ZM120.358 0H143.014V7.07408H129.827V8.48437H143.014V24.7442H120.358V17.3232H133.545V15.9054H120.358V0Z" fill="#4F4F4F"/>
<path fill-rule="evenodd" clip-rule="evenodd" d="M105.421 181L44.3715 166.46L26.375 35.574H184.625L166.637 166.445L105.421 181ZM61.9549 94.8214L63.6341 110.87H128.49L126.319 131.685L105.447 136.527H105.43L84.5934 131.7L83.2571 118.902H64.4693L67.0892 144.106L105.421 153.232L143.814 144.106L148.491 99.1277L148.948 94.8214L152.324 62.3243H58.5877L60.2932 78.3805H131.822L130.117 94.8214H61.9549Z" fill="#4F4F4F"/>
</svg>
