<svg width="145" height="101" viewBox="0 0 145 101" fill="none" xmlns="http://www.w3.org/2000/svg">
<path d="M86.0144 0.751352L91.4382 1.58794L95.8251 2.68971L99.3733 3.95249L102.074 5.30366L104.116 6.73375L105.618 8.16069L106.578 9.54659L107.169 10.8094L107.426 11.8954L107.547 12.7509L107.475 13.2939V35.7713L107.169 38.42L106.393 40.7403L105.126 42.6818L103.575 44.2761L101.772 45.5736L99.8016 46.6249L97.6871 47.433L95.5726 48.0234L93.6023 48.4527L91.7989 48.7305L90.248 48.9105L88.9811 48.9957H53.0748L48.945 49.2072L45.3968 49.785L42.3895 50.7226L39.9234 51.8559L37.9261 53.2071L36.303 54.6687L35.1082 56.1999L34.211 57.7436L33.6023 59.221L33.183 60.5722L32.9441 61.7056L32.8314 62.5927V75.4698H19.4184L18.156 75.3341L16.4608 75.0405L14.5627 74.548L12.4482 73.7903L10.2885 72.6917L8.12895 71.1764L6.01443 69.2349L4.08927 66.7503L2.39405 63.6786L1.14968 59.9787L0.306582 55.5558L0 50.3785L0.356177 45.2484L1.3165 40.8761L2.77277 37.2109L4.69793 34.2181L6.86204 31.8188L9.25609 29.9751L11.7944 28.5766L14.3057 27.5759L16.7223 26.9034L18.8864 26.4741L20.8115 26.2594L22.2408 26.2247H23.2011L23.5798 26.2594H72.6105V22.7742H37.5023L37.4527 11.1977L37.3399 9.63498L37.6465 8.20489L38.3003 6.90739L39.3102 5.72038L40.8115 4.63755L42.6916 3.66521L44.9639 2.82862L47.6195 2.05517L50.6718 1.43325L54.1704 0.924984L57.9937 0.511424L62.2678 0.249398L66.8981 0.0852374L71.9477 0L79.5762 0.214672L86.0144 0.751352ZM48.1605 9.08567L46.7719 10.4653L46.2804 12.1921L46.7719 13.9221L48.1605 15.349L50.1307 16.2867L52.5969 16.6655L55.0631 16.2867L57.0334 15.349L58.422 13.9221L58.9134 12.1921L58.422 10.4653L57.0334 9.08567L55.0631 8.16385L52.5969 7.78817L50.1307 8.16385L48.1605 9.08567ZM126.849 25.707L128.512 25.9721L130.437 26.4646L132.552 27.2223L134.711 28.3556L136.876 29.8362L138.986 31.8093L140.911 34.2875L142.583 37.3655L143.85 41.0813L144.693 45.4536L145 50.631L144.626 55.8115L143.656 60.1839L142.227 63.7986L140.302 66.7914L138.138 69.1907L135.721 71.0848L133.21 72.4644L130.672 73.4841L128.278 74.1565L126.114 74.5354L124.188 74.75L122.759 74.829L121.799 74.7816H72.367V78.2321H107.475L107.547 89.8591L107.66 91.3713L107.353 92.8014L106.7 94.0989L105.667 95.3143L104.166 96.3656L102.313 97.3885L100.036 98.225L97.3805 98.948L94.3282 99.5699L90.8296 100.113L86.9838 100.492L82.7322 100.785L78.0794 100.949L73.0298 101L65.4013 100.836L58.9675 100.242L53.5618 99.4057L49.1749 98.3545L45.6267 97.0885L42.9261 95.69L40.8837 94.2599L39.3823 92.833L38.422 91.4471L37.8088 90.1843L37.5744 89.1331L37.4527 88.2902L37.5023 87.7503V65.2729L37.8088 62.5737L38.6069 60.2881L39.8512 58.3655L41.4247 56.7523L43.2281 55.4232L45.2074 54.4036L47.3174 53.5607L49.4094 52.9703L51.4067 52.541L53.2146 52.2979L54.761 52.1337L56.8034 51.998H91.9116L96.064 51.7864L99.6123 51.2087L102.619 50.3216L105.086 49.1378L107.065 47.7866L108.684 46.3249L109.905 44.7938L110.803 43.2817L111.411 41.8168L111.839 40.4688L112.074 39.285L112.187 38.3979V25.5207H124.752L125.6 25.5554L126.849 25.707ZM87.9351 85.6888L86.5464 87.0874L86.0776 88.8174L86.5464 90.5442L87.9351 91.9238L89.9324 92.893L92.3986 93.2213L94.8647 92.893L96.835 91.9238L98.2236 90.5442L98.7151 88.8174L98.2236 87.0874L96.835 85.6888L94.8647 84.7196L92.3986 84.3913L89.9324 84.7196L87.9351 85.6888Z" fill="#4F4F4F"/>
</svg>
