<svg width="124" height="89" viewBox="0 0 124 89" fill="none" xmlns="http://www.w3.org/2000/svg">
<g clip-path="url(#clip0_26_20)">
<mask id="mask0_26_20" style="mask-type:luminance" maskUnits="userSpaceOnUse" x="0" y="0" width="124" height="89">
<path d="M0 0H124V89H0V0Z" fill="white"/>
</mask>
<g mask="url(#mask0_26_20)">
<path fill-rule="evenodd" clip-rule="evenodd" d="M0 0H124V89H0V0ZM94.7928 74.6117C89.0423 74.6117 85.7925 72.4608 83.297 69.5312L73.8265 73.4806C77.2468 78.3311 84.2373 82.032 95.0615 82.032C106.128 82.032 114.369 77.9084 114.369 70.3768C114.369 63.394 108.779 60.2901 98.8797 57.2381L95.9657 56.3444C90.9643 54.7869 88.7995 53.7745 88.7995 51.264C88.7995 49.2355 90.9695 47.6817 94.3795 47.6817C97.7223 47.6817 99.8768 48.6941 101.876 51.264L110.949 47.0847C107.11 42.2379 101.788 40.3875 94.3795 40.3875C83.9738 40.3875 77.314 45.1638 77.314 51.4383C77.314 58.2431 82.894 61.4656 91.3053 64.0355L94.2193 64.9329C99.5358 66.6017 102.703 67.6177 102.703 70.4843C102.703 72.8799 99.6185 74.6117 94.7928 74.6117ZM49.6362 74.556C45.632 74.556 43.9632 72.5906 42.1342 70.2544L32.6482 74.378C35.3968 78.5536 40.8012 82.0172 50.127 82.0172C60.4552 82.0172 67.5283 78.0752 67.5283 69.4163V40.8621H55.8775V69.305C55.8775 73.4843 53.4595 74.556 49.631 74.556H49.6362Z" fill="#4F4F4F"/>
</g>
</g>
<defs>
<clipPath id="clip0_26_20">
<rect width="124" height="89" fill="white"/>
</clipPath>
</defs>
</svg>
