<svg width="268" height="44" viewBox="0 0 268 44" fill="none" xmlns="http://www.w3.org/2000/svg">
<path d="M64.2074 15.3438C64.1278 14.5994 63.7926 14.0199 63.2017 13.6051C62.6165 13.1903 61.8551 12.983 60.9176 12.983C60.2585 12.983 59.6932 13.0824 59.2216 13.2812C58.75 13.4801 58.3892 13.75 58.1392 14.0909C57.8892 14.4318 57.7614 14.821 57.7557 15.2585C57.7557 15.6222 57.8381 15.9375 58.0028 16.2045C58.1733 16.4716 58.4034 16.6989 58.6932 16.8864C58.983 17.0682 59.304 17.2216 59.6562 17.3466C60.0085 17.4716 60.3636 17.5767 60.7216 17.6619L62.358 18.071C63.017 18.2244 63.6506 18.4318 64.2585 18.6932C64.8722 18.9545 65.4205 19.2841 65.9034 19.6818C66.392 20.0795 66.7784 20.5597 67.0625 21.1222C67.3466 21.6847 67.4886 22.3437 67.4886 23.0994C67.4886 24.1222 67.2273 25.0227 66.7045 25.8011C66.1818 26.5739 65.4261 27.179 64.4375 27.6165C63.4545 28.0483 62.2642 28.2642 60.8665 28.2642C59.5085 28.2642 58.3295 28.054 57.3295 27.6335C56.3352 27.2131 55.5568 26.5994 54.9943 25.7926C54.4375 24.9858 54.1364 24.0028 54.0909 22.8438H57.2017C57.2472 23.4517 57.4347 23.9574 57.7642 24.3608C58.0938 24.7642 58.5227 25.0653 59.0511 25.2642C59.5852 25.4631 60.1818 25.5625 60.8409 25.5625C61.5284 25.5625 62.1307 25.4602 62.6477 25.2557C63.1705 25.0455 63.5795 24.7557 63.875 24.3864C64.1705 24.0114 64.321 23.5739 64.3267 23.0739C64.321 22.6193 64.1875 22.2443 63.9261 21.9489C63.6648 21.6477 63.2983 21.3977 62.8267 21.1989C62.3608 20.9943 61.8153 20.8125 61.1903 20.6534L59.2045 20.142C57.767 19.7727 56.6307 19.2131 55.7955 18.4631C54.9659 17.7074 54.5511 16.7045 54.5511 15.4545C54.5511 14.4261 54.8295 13.5256 55.3864 12.7528C55.9489 11.9801 56.7131 11.3807 57.679 10.9545C58.6449 10.5227 59.7386 10.3068 60.9602 10.3068C62.1989 10.3068 63.2841 10.5227 64.2159 10.9545C65.1534 11.3807 65.8892 11.9744 66.4233 12.7358C66.9574 13.4915 67.233 14.3608 67.25 15.3438H64.2074ZM73.9382 28.2642C73.1087 28.2642 72.3615 28.1165 71.6967 27.821C71.0376 27.5199 70.5149 27.0767 70.1286 26.4915C69.7479 25.9062 69.5575 25.1847 69.5575 24.3267C69.5575 23.5881 69.6939 22.9773 69.9666 22.4943C70.2393 22.0114 70.6115 21.625 71.0831 21.3352C71.5547 21.0455 72.0859 20.8267 72.6768 20.679C73.2734 20.5256 73.8899 20.4148 74.5263 20.3466C75.2933 20.267 75.9155 20.196 76.3928 20.1335C76.87 20.0653 77.2166 19.9631 77.4325 19.8267C77.6541 19.6847 77.7649 19.4659 77.7649 19.1705V19.1193C77.7649 18.4773 77.5746 17.9801 77.1939 17.6278C76.8132 17.2756 76.2649 17.0994 75.549 17.0994C74.7933 17.0994 74.1939 17.2642 73.7507 17.5938C73.3132 17.9233 73.0178 18.3125 72.8643 18.7614L69.9837 18.3523C70.2109 17.5568 70.5859 16.892 71.1087 16.358C71.6314 15.8182 72.2706 15.4148 73.0263 15.1477C73.782 14.875 74.6172 14.7386 75.532 14.7386C76.1626 14.7386 76.7905 14.8125 77.4155 14.9602C78.0405 15.108 78.6115 15.3523 79.1286 15.6932C79.6456 16.0284 80.0604 16.4858 80.3729 17.0653C80.6911 17.6449 80.8501 18.3693 80.8501 19.2386V28H77.8842V26.2017H77.782C77.5945 26.5653 77.3303 26.9062 76.9893 27.2244C76.6541 27.5369 76.2308 27.7898 75.7195 27.983C75.2138 28.1705 74.62 28.2642 73.9382 28.2642ZM74.7393 25.9972C75.3587 25.9972 75.8956 25.875 76.3501 25.6307C76.8047 25.3807 77.1541 25.0511 77.3984 24.642C77.6484 24.233 77.7734 23.7869 77.7734 23.304V21.7614C77.6768 21.8409 77.5121 21.9148 77.2791 21.983C77.0518 22.0511 76.7962 22.1108 76.5121 22.1619C76.228 22.2131 75.9467 22.2585 75.6683 22.2983C75.3899 22.3381 75.1484 22.3722 74.9439 22.4006C74.4837 22.4631 74.0717 22.5653 73.7081 22.7074C73.3445 22.8494 73.0575 23.0483 72.8473 23.304C72.6371 23.554 72.532 23.8778 72.532 24.2756C72.532 24.8438 72.7393 25.2727 73.1541 25.5625C73.5689 25.8523 74.0973 25.9972 74.7393 25.9972ZM87.0376 10.5455V28H83.9524V10.5455H87.0376ZM90.2102 28V14.9091H93.2955V28H90.2102ZM91.7614 13.0511C91.2727 13.0511 90.8523 12.8892 90.5 12.5653C90.1477 12.2358 89.9716 11.8409 89.9716 11.3807C89.9716 10.9148 90.1477 10.5199 90.5 10.196C90.8523 9.86648 91.2727 9.7017 91.7614 9.7017C92.2557 9.7017 92.6761 9.86648 93.0227 10.196C93.375 10.5199 93.5511 10.9148 93.5511 11.3807C93.5511 11.8409 93.375 12.2358 93.0227 12.5653C92.6761 12.8892 92.2557 13.0511 91.7614 13.0511ZM96.468 28V14.9091H99.4169V17.1335H99.5703C99.843 16.3835 100.295 15.7983 100.925 15.3778C101.556 14.9517 102.309 14.7386 103.184 14.7386C104.07 14.7386 104.817 14.9545 105.425 15.3864C106.039 15.8125 106.471 16.3949 106.721 17.1335H106.857C107.147 16.4062 107.636 15.8267 108.323 15.3949C109.016 14.9574 109.837 14.7386 110.786 14.7386C111.991 14.7386 112.974 15.1193 113.735 15.8807C114.496 16.642 114.877 17.7528 114.877 19.2131V28H111.783V19.6903C111.783 18.8778 111.567 18.2841 111.136 17.9091C110.704 17.5284 110.175 17.3381 109.55 17.3381C108.806 17.3381 108.224 17.571 107.803 18.0369C107.388 18.4972 107.181 19.0966 107.181 19.8352V28H104.156V19.5625C104.156 18.8864 103.951 18.3466 103.542 17.9432C103.138 17.5398 102.61 17.3381 101.957 17.3381C101.513 17.3381 101.11 17.4517 100.746 17.679C100.383 17.9006 100.093 18.2159 99.8771 18.625C99.6612 19.0284 99.5533 19.5 99.5533 20.0398V28H96.468ZM124.058 28H118.143V10.5455H124.178C125.911 10.5455 127.399 10.8949 128.643 11.5938C129.893 12.2869 130.854 13.2841 131.524 14.5852C132.195 15.8864 132.53 17.4432 132.53 19.2557C132.53 21.0739 132.192 22.6364 131.516 23.9432C130.845 25.25 129.876 26.2528 128.609 26.9517C127.348 27.6506 125.831 28 124.058 28ZM121.305 25.2642H123.905C125.121 25.2642 126.135 25.0426 126.947 24.5994C127.76 24.1506 128.371 23.483 128.78 22.5966C129.189 21.7045 129.393 20.5909 129.393 19.2557C129.393 17.9205 129.189 16.8125 128.78 15.9318C128.371 15.0455 127.766 14.3835 126.964 13.946C126.169 13.5028 125.18 13.2812 123.999 13.2812H121.305V25.2642ZM141.193 28.2557C139.881 28.2557 138.747 27.983 137.793 27.4375C136.844 26.8864 136.114 26.108 135.602 25.1023C135.091 24.0909 134.835 22.9006 134.835 21.5312C134.835 20.1847 135.091 19.0028 135.602 17.9858C136.119 16.9631 136.841 16.1676 137.767 15.5994C138.693 15.0256 139.781 14.7386 141.031 14.7386C141.838 14.7386 142.599 14.8693 143.315 15.1307C144.037 15.3864 144.673 15.7841 145.224 16.3239C145.781 16.8636 146.219 17.5511 146.537 18.3864C146.855 19.2159 147.014 20.2045 147.014 21.3523V22.2983H136.284V20.2188H144.057C144.051 19.6278 143.923 19.1023 143.673 18.642C143.423 18.1761 143.074 17.8097 142.625 17.5426C142.182 17.2756 141.665 17.142 141.074 17.142C140.443 17.142 139.889 17.2955 139.412 17.6023C138.935 17.9034 138.563 18.3011 138.295 18.7955C138.034 19.2841 137.901 19.821 137.895 20.4062V22.2216C137.895 22.983 138.034 23.6364 138.312 24.1818C138.591 24.7216 138.98 25.1364 139.48 25.4261C139.98 25.7102 140.565 25.8523 141.236 25.8523C141.685 25.8523 142.091 25.7898 142.455 25.6648C142.818 25.5341 143.134 25.3438 143.401 25.0938C143.668 24.8438 143.869 24.5341 144.006 24.1648L146.886 24.4886C146.705 25.25 146.358 25.9148 145.847 26.483C145.341 27.0455 144.693 27.483 143.903 27.7955C143.114 28.1023 142.21 28.2557 141.193 28.2557ZM160.942 14.9091L156.281 28H152.871L148.21 14.9091H151.499L154.508 24.6335H154.644L157.661 14.9091H160.942ZM170.852 28V30.4631H159.577V28H170.852ZM186.521 16.4347H183.334C183.243 15.9119 183.075 15.4489 182.831 15.0455C182.587 14.6364 182.283 14.2898 181.919 14.0057C181.555 13.7216 181.141 13.5085 180.675 13.3665C180.214 13.2188 179.717 13.1449 179.183 13.1449C178.234 13.1449 177.393 13.3835 176.661 13.8608C175.928 14.3324 175.354 15.0256 174.939 15.9403C174.524 16.8494 174.317 17.9602 174.317 19.2727C174.317 20.608 174.524 21.733 174.939 22.6477C175.359 23.5568 175.933 24.2443 176.661 24.7102C177.393 25.1705 178.232 25.4006 179.175 25.4006C179.697 25.4006 180.186 25.3324 180.641 25.196C181.101 25.054 181.513 24.8466 181.876 24.5739C182.246 24.3011 182.555 23.9659 182.805 23.5682C183.061 23.1705 183.237 22.7159 183.334 22.2045L186.521 22.2216C186.402 23.0511 186.143 23.8295 185.746 24.5568C185.354 25.2841 184.839 25.9261 184.203 26.483C183.567 27.0341 182.822 27.4659 181.97 27.7784C181.118 28.0852 180.172 28.2386 179.132 28.2386C177.598 28.2386 176.229 27.8835 175.024 27.1733C173.82 26.4631 172.871 25.4375 172.178 24.0966C171.484 22.7557 171.138 21.1477 171.138 19.2727C171.138 17.392 171.487 15.7841 172.186 14.4489C172.885 13.108 173.837 12.0824 175.041 11.3722C176.246 10.6619 177.609 10.3068 179.132 10.3068C180.104 10.3068 181.007 10.4432 181.842 10.7159C182.678 10.9886 183.422 11.3892 184.075 11.9176C184.729 12.4403 185.266 13.0824 185.686 13.8438C186.112 14.5994 186.391 15.4631 186.521 16.4347ZM194.991 28.2557C193.712 28.2557 192.604 27.9744 191.667 27.4119C190.729 26.8494 190.002 26.0625 189.485 25.0511C188.974 24.0398 188.718 22.858 188.718 21.5057C188.718 20.1534 188.974 18.9687 189.485 17.9517C190.002 16.9347 190.729 16.1449 191.667 15.5824C192.604 15.0199 193.712 14.7386 194.991 14.7386C196.269 14.7386 197.377 15.0199 198.315 15.5824C199.252 16.1449 199.977 16.9347 200.488 17.9517C201.005 18.9687 201.263 20.1534 201.263 21.5057C201.263 22.858 201.005 24.0398 200.488 25.0511C199.977 26.0625 199.252 26.8494 198.315 27.4119C197.377 27.9744 196.269 28.2557 194.991 28.2557ZM195.008 25.7841C195.701 25.7841 196.281 25.5937 196.746 25.2131C197.212 24.8267 197.559 24.3097 197.786 23.6619C198.019 23.0142 198.136 22.2926 198.136 21.4972C198.136 20.696 198.019 19.9716 197.786 19.3239C197.559 18.6705 197.212 18.1506 196.746 17.7642C196.281 17.3778 195.701 17.1847 195.008 17.1847C194.298 17.1847 193.707 17.3778 193.235 17.7642C192.769 18.1506 192.42 18.6705 192.187 19.3239C191.96 19.9716 191.846 20.696 191.846 21.4972C191.846 22.2926 191.96 23.0142 192.187 23.6619C192.42 24.3097 192.769 24.8267 193.235 25.2131C193.707 25.5937 194.298 25.7841 195.008 25.7841ZM208.74 28.2301C207.712 28.2301 206.791 27.9659 205.979 27.4375C205.166 26.9091 204.524 26.142 204.053 25.1364C203.581 24.1307 203.345 22.9091 203.345 21.4716C203.345 20.017 203.584 18.7898 204.061 17.7898C204.544 16.7841 205.195 16.0256 206.013 15.5142C206.831 14.9972 207.743 14.7386 208.749 14.7386C209.516 14.7386 210.146 14.8693 210.641 15.1307C211.135 15.3864 211.527 15.696 211.817 16.0597C212.107 16.4176 212.331 16.7557 212.49 17.0739H212.618V10.5455H215.712V28H212.678V25.9375H212.49C212.331 26.2557 212.101 26.5937 211.8 26.9517C211.499 27.304 211.101 27.6051 210.607 27.8551C210.112 28.1051 209.49 28.2301 208.74 28.2301ZM209.601 25.6989C210.254 25.6989 210.811 25.5227 211.271 25.1705C211.732 24.8125 212.081 24.3153 212.32 23.679C212.558 23.0426 212.678 22.3011 212.678 21.4545C212.678 20.608 212.558 19.8722 212.32 19.2472C212.087 18.6222 211.74 18.1364 211.28 17.7898C210.825 17.4432 210.266 17.2699 209.601 17.2699C208.913 17.2699 208.339 17.4489 207.879 17.8068C207.419 18.1648 207.072 18.6591 206.839 19.2898C206.607 19.9205 206.49 20.642 206.49 21.4545C206.49 22.2727 206.607 23.0028 206.839 23.6449C207.078 24.2812 207.428 24.7841 207.888 25.1534C208.354 25.517 208.925 25.6989 209.601 25.6989ZM224.795 28.2557C223.482 28.2557 222.349 27.983 221.394 27.4375C220.445 26.8864 219.715 26.108 219.204 25.1023C218.692 24.0909 218.437 22.9006 218.437 21.5312C218.437 20.1847 218.692 19.0028 219.204 17.9858C219.721 16.9631 220.442 16.1676 221.369 15.5994C222.295 15.0256 223.383 14.7386 224.633 14.7386C225.44 14.7386 226.201 14.8693 226.917 15.1307C227.638 15.3864 228.275 15.7841 228.826 16.3239C229.383 16.8636 229.82 17.5511 230.138 18.3864C230.457 19.2159 230.616 20.2045 230.616 21.3523V22.2983H219.886V20.2188H227.658C227.653 19.6278 227.525 19.1023 227.275 18.642C227.025 18.1761 226.675 17.8097 226.227 17.5426C225.783 17.2756 225.266 17.142 224.675 17.142C224.045 17.142 223.491 17.2955 223.013 17.6023C222.536 17.9034 222.164 18.3011 221.897 18.7955C221.636 19.2841 221.502 19.821 221.496 20.4062V22.2216C221.496 22.983 221.636 23.6364 221.914 24.1818C222.192 24.7216 222.582 25.1364 223.082 25.4261C223.582 25.7102 224.167 25.8523 224.837 25.8523C225.286 25.8523 225.692 25.7898 226.056 25.6648C226.42 25.5341 226.735 25.3438 227.002 25.0938C227.269 24.8438 227.471 24.5341 227.607 24.1648L230.488 24.4886C230.306 25.25 229.96 25.9148 229.448 26.483C228.942 27.0455 228.295 27.483 227.505 27.7955C226.715 28.1023 225.812 28.2557 224.795 28.2557ZM243.572 18.3693L240.76 18.6761C240.68 18.392 240.541 18.125 240.342 17.875C240.149 17.625 239.888 17.4233 239.558 17.2699C239.229 17.1165 238.825 17.0398 238.348 17.0398C237.706 17.0398 237.166 17.179 236.729 17.4574C236.297 17.7358 236.084 18.0966 236.089 18.5398C236.084 18.9205 236.223 19.2301 236.507 19.4688C236.797 19.7074 237.274 19.9034 237.939 20.0568L240.172 20.5341C241.411 20.8011 242.331 21.2244 242.933 21.804C243.541 22.3835 243.848 23.142 243.854 24.0795C243.848 24.9034 243.607 25.6307 243.129 26.2614C242.658 26.8864 242.001 27.375 241.161 27.7273C240.32 28.0795 239.354 28.2557 238.263 28.2557C236.661 28.2557 235.371 27.9205 234.393 27.25C233.416 26.5739 232.834 25.6335 232.646 24.429L235.655 24.1392C235.791 24.7301 236.081 25.1761 236.524 25.4773C236.967 25.7784 237.544 25.929 238.254 25.929C238.987 25.929 239.575 25.7784 240.018 25.4773C240.467 25.1761 240.692 24.804 240.692 24.3608C240.692 23.9858 240.547 23.6761 240.257 23.4318C239.973 23.1875 239.53 23 238.928 22.8693L236.695 22.4006C235.439 22.1392 234.51 21.6989 233.908 21.0795C233.305 20.4545 233.007 19.6648 233.013 18.7102C233.007 17.9034 233.226 17.2045 233.669 16.6136C234.118 16.017 234.74 15.5568 235.536 15.233C236.337 14.9034 237.26 14.7386 238.305 14.7386C239.839 14.7386 241.047 15.0653 241.928 15.7188C242.814 16.3722 243.362 17.2557 243.572 18.3693Z" fill="white"/>
<path d="M38 25.4717C38 32.7324 33.1202 38 27.8 38C22.4797 38 17.6 32.7324 17.6 25.4717C17.6 18.211 22.4797 12.9434 27.8 12.9434C33.1202 12.9434 38 18.211 38 25.4717Z" fill="black" stroke="white" stroke-width="4"/>
<path d="M5.18576 26.0189L15.2 4.70343L25.2142 26.0189H5.18576Z" fill="black" stroke="white" stroke-width="4"/>
</svg>
