<svg width="1513" height="806" viewBox="0 0 1513 806" fill="none" xmlns="http://www.w3.org/2000/svg">
<rect width="1513" height="806" fill="#002440"/>
<mask id="mask0_1943_22" style="mask-type:luminance" maskUnits="userSpaceOnUse" x="191" y="155" width="124" height="89">
<path d="M191 155H315V244H191V155Z" fill="white"/>
</mask>
<g mask="url(#mask0_1943_22)">
<path fill-rule="evenodd" clip-rule="evenodd" d="M191 155H315V244H191V155ZM285.793 229.612C280.042 229.612 276.792 227.461 274.297 224.531L264.826 228.481C268.247 233.331 275.237 237.032 286.061 237.032C297.128 237.032 305.369 232.908 305.369 225.377C305.369 218.394 299.779 215.29 289.88 212.238L286.966 211.344C281.964 209.787 279.799 208.775 279.799 206.264C279.799 204.236 281.969 202.682 285.379 202.682C288.722 202.682 290.877 203.694 292.876 206.264L301.949 202.085C298.11 197.238 292.788 195.387 285.379 195.387C274.974 195.387 268.314 200.164 268.314 206.438C268.314 213.243 273.894 216.466 282.305 219.035L285.219 219.933C290.536 221.602 293.703 222.618 293.703 225.484C293.703 227.88 290.618 229.612 285.793 229.612ZM240.636 229.556C236.632 229.556 234.963 227.591 233.134 225.254L223.648 229.378C226.397 233.554 231.801 237.017 241.127 237.017C251.455 237.017 258.528 233.075 258.528 224.416V195.862H246.877V224.305C246.877 228.484 244.459 229.556 240.631 229.556H240.636Z" fill="#4F4F4F"/>
</g>
<g clip-path="url(#clip0_1943_22)">
<path d="M1174.14 67H1190.68V72.929H1181.06V78.858H1190.68V84.787H1174.14V67ZM1193.99 67H1210.53V72.159H1200.91V73.1875H1210.53V85.0455H1193.99V79.6335H1203.61V78.5995H1193.99V67ZM1213.85 67H1230.38V72.159H1220.76V73.1875H1230.38V85.0455H1213.85V79.6335H1223.47V78.5995H1213.85V67Z" fill="#4F4F4F"/>
<path fill-rule="evenodd" clip-rule="evenodd" d="M1203.4 199.311L1158.84 188.707L1145.71 93.2542H1261.21L1248.08 188.696L1203.4 199.311ZM1171.68 136.462L1172.9 148.166H1220.24L1218.65 163.346L1203.42 166.877H1203.41L1188.2 163.357L1187.22 154.024H1173.51L1175.42 172.405L1203.4 179.06L1231.42 172.405L1234.83 139.603L1235.17 136.462L1237.63 112.763H1169.22L1170.46 124.472H1222.67L1221.42 136.462H1171.68Z" fill="#4F4F4F"/>
</g>
<path d="M798.6 653H715.4C712.642 653 709.996 653.831 708.046 655.311C706.096 656.791 705 658.798 705 660.891V708.237C705 710.33 706.096 712.337 708.046 713.817C709.996 715.297 712.642 716.128 715.4 716.128H746.6V724.019H731V731.91H783V724.019H767.4V716.128H798.6C801.358 716.128 804.004 715.297 805.954 713.817C807.904 712.337 809 710.33 809 708.237V660.891C809 658.798 807.904 656.791 805.954 655.311C804.004 653.831 801.358 653 798.6 653ZM798.6 708.237H715.4V660.891H798.6V708.237Z" fill="#4F4F4F"/>
<path d="M1286.33 607.832V591.55H1270.11V607.832H1262V567.127H1270.11V583.409H1286.33V567.127H1294.44V607.832H1286.33ZM1310.67 607.832V575.268H1299.31V567.127H1329.32V575.268H1318.78V607.832H1310.67ZM1335 607.832V567.127H1343.11L1354.47 594.807H1355.28L1367.44 567.127H1375.56V607.832H1367.44V582.595H1366.63L1357.71 602.947H1352.84L1343.92 582.595H1343.11V607.832H1335ZM1408 607.832H1383.67V567.127H1391.78V599.691H1408V607.832ZM1330.13 511.769L1311.48 530.493L1330.13 549.217L1325.27 558.986L1296.88 530.493L1325.27 502L1330.13 511.769ZM1339.87 549.217L1358.52 530.493L1339.87 511.769L1344.73 502L1373.12 530.493L1344.73 558.986L1339.87 549.217Z" fill="#4F4F4F"/>
<path d="M122.8 692.268L140.2 618M157.6 636.567L175 655.134L157.6 673.701M105.4 673.701L88 655.134L105.4 636.567" stroke="#4F4F4F" stroke-width="4" stroke-linecap="round" stroke-linejoin="round"/>
<path d="M723 67H757.417M723 77.5H757.417" stroke="#4F4F4F" stroke-width="2" stroke-linecap="round" stroke-linejoin="round"/>
<defs>
<clipPath id="clip0_1943_22">
<rect width="154" height="132" fill="white" transform="translate(1126 67)"/>
</clipPath>
</defs>
</svg>
