<svg width="260" height="40" viewBox="0 0 260 40" fill="none" xmlns="http://www.w3.org/2000/svg">
<path d="M63.4062 22.5352C63.4062 22.2305 63.3594 21.957 63.2656 21.7148C63.1797 21.4648 63.0156 21.2383 62.7734 21.0352C62.5312 20.8242 62.1914 20.6172 61.7539 20.4141C61.3164 20.2109 60.75 20 60.0547 19.7812C59.2812 19.5312 58.5469 19.25 57.8516 18.9375C57.1641 18.625 56.5547 18.2617 56.0234 17.8477C55.5 17.4258 55.0859 16.9375 54.7812 16.3828C54.4844 15.8281 54.3359 15.1836 54.3359 14.4492C54.3359 13.7383 54.4922 13.0938 54.8047 12.5156C55.1172 11.9297 55.5547 11.4297 56.1172 11.0156C56.6797 10.5938 57.3438 10.2695 58.1094 10.043C58.8828 9.81641 59.7305 9.70312 60.6523 9.70312C61.9102 9.70312 63.0078 9.92969 63.9453 10.3828C64.8828 10.8359 65.6094 11.457 66.125 12.2461C66.6484 13.0352 66.9102 13.9375 66.9102 14.9531H63.418C63.418 14.4531 63.3125 14.0156 63.1016 13.6406C62.8984 13.2578 62.5859 12.957 62.1641 12.7383C61.75 12.5195 61.2266 12.4102 60.5938 12.4102C59.9844 12.4102 59.4766 12.5039 59.0703 12.6914C58.6641 12.8711 58.3594 13.1172 58.1562 13.4297C57.9531 13.7344 57.8516 14.0781 57.8516 14.4609C57.8516 14.75 57.9219 15.0117 58.0625 15.2461C58.2109 15.4805 58.4297 15.6992 58.7188 15.9023C59.0078 16.1055 59.3633 16.2969 59.7852 16.4766C60.207 16.6562 60.6953 16.832 61.25 17.0039C62.1797 17.2852 62.9961 17.6016 63.6992 17.9531C64.4102 18.3047 65.0039 18.6992 65.4805 19.1367C65.957 19.5742 66.3164 20.0703 66.5586 20.625C66.8008 21.1797 66.9219 21.8086 66.9219 22.5117C66.9219 23.2539 66.7773 23.918 66.4883 24.5039C66.1992 25.0898 65.7812 25.5859 65.2344 25.9922C64.6875 26.3984 64.0352 26.707 63.2773 26.918C62.5195 27.1289 61.6719 27.2344 60.7344 27.2344C59.8906 27.2344 59.0586 27.125 58.2383 26.9062C57.418 26.6797 56.6719 26.3398 56 25.8867C55.3359 25.4336 54.8047 24.8555 54.4062 24.1523C54.0078 23.4492 53.8086 22.6172 53.8086 21.6562H57.3359C57.3359 22.1875 57.418 22.6367 57.582 23.0039C57.7461 23.3711 57.9766 23.668 58.2734 23.8945C58.5781 24.1211 58.9375 24.2852 59.3516 24.3867C59.7734 24.4883 60.2344 24.5391 60.7344 24.5391C61.3438 24.5391 61.8438 24.4531 62.2344 24.2812C62.6328 24.1094 62.9258 23.8711 63.1133 23.5664C63.3086 23.2617 63.4062 22.918 63.4062 22.5352ZM75.9453 24.1406V18.4922C75.9453 18.0859 75.8789 17.7383 75.7461 17.4492C75.6133 17.1523 75.4062 16.9219 75.125 16.7578C74.8516 16.5938 74.4961 16.5117 74.0586 16.5117C73.6836 16.5117 73.3594 16.5781 73.0859 16.7109C72.8125 16.8359 72.6016 17.0195 72.4531 17.2617C72.3047 17.4961 72.2305 17.7734 72.2305 18.0938H68.8555C68.8555 17.5547 68.9805 17.043 69.2305 16.5586C69.4805 16.0742 69.8438 15.6484 70.3203 15.2812C70.7969 14.9062 71.3633 14.6133 72.0195 14.4023C72.6836 14.1914 73.4258 14.0859 74.2461 14.0859C75.2305 14.0859 76.1055 14.25 76.8711 14.5781C77.6367 14.9062 78.2383 15.3984 78.6758 16.0547C79.1211 16.7109 79.3438 17.5312 79.3438 18.5156V23.9414C79.3438 24.6367 79.3867 25.207 79.4727 25.6523C79.5586 26.0898 79.6836 26.4727 79.8477 26.8008V27H76.4375C76.2734 26.6562 76.1484 26.2266 76.0625 25.7109C75.9844 25.1875 75.9453 24.6641 75.9453 24.1406ZM76.3906 19.2773L76.4141 21.1875H74.5273C74.082 21.1875 73.6953 21.2383 73.3672 21.3398C73.0391 21.4414 72.7695 21.5859 72.5586 21.7734C72.3477 21.9531 72.1914 22.1641 72.0898 22.4062C71.9961 22.6484 71.9492 22.9141 71.9492 23.2031C71.9492 23.4922 72.0156 23.7539 72.1484 23.9883C72.2812 24.2148 72.4727 24.3945 72.7227 24.5273C72.9727 24.6523 73.2656 24.7148 73.6016 24.7148C74.1094 24.7148 74.5508 24.6133 74.9258 24.4102C75.3008 24.207 75.5898 23.957 75.793 23.6602C76.0039 23.3633 76.1133 23.082 76.1211 22.8164L77.0117 24.2461C76.8867 24.5664 76.7148 24.8984 76.4961 25.2422C76.2852 25.5859 76.0156 25.9102 75.6875 26.2148C75.3594 26.5117 74.9648 26.7578 74.5039 26.9531C74.043 27.1406 73.4961 27.2344 72.8633 27.2344C72.0586 27.2344 71.3281 27.0742 70.6719 26.7539C70.0234 26.4258 69.5078 25.9766 69.125 25.4062C68.75 24.8281 68.5625 24.1719 68.5625 23.4375C68.5625 22.7734 68.6875 22.1836 68.9375 21.668C69.1875 21.1523 69.5547 20.7188 70.0391 20.3672C70.5312 20.0078 71.1445 19.7383 71.8789 19.5586C72.6133 19.3711 73.4648 19.2773 74.4336 19.2773H76.3906ZM85.5078 9V27H82.1211V9H85.5078ZM91.8594 14.3203V27H88.4727V14.3203H91.8594ZM88.2617 11.0156C88.2617 10.5234 88.4336 10.1172 88.7773 9.79688C89.1211 9.47656 89.582 9.31641 90.1602 9.31641C90.7305 9.31641 91.1875 9.47656 91.5312 9.79688C91.8828 10.1172 92.0586 10.5234 92.0586 11.0156C92.0586 11.5078 91.8828 11.9141 91.5312 12.2344C91.1875 12.5547 90.7305 12.7148 90.1602 12.7148C89.582 12.7148 89.1211 12.5547 88.7773 12.2344C88.4336 11.9141 88.2617 11.5078 88.2617 11.0156ZM98.0234 16.9453V27H94.6367V14.3203H97.8125L98.0234 16.9453ZM97.5547 20.2148H96.6172C96.6172 19.332 96.7227 18.5195 96.9336 17.7773C97.1523 17.0273 97.4688 16.3789 97.8828 15.832C98.3047 15.2773 98.8242 14.8477 99.4414 14.543C100.059 14.2383 100.773 14.0859 101.586 14.0859C102.148 14.0859 102.664 14.1719 103.133 14.3438C103.602 14.5078 104.004 14.7695 104.34 15.1289C104.684 15.4805 104.949 15.9414 105.137 16.5117C105.324 17.0742 105.418 17.75 105.418 18.5391V27H102.043V18.9141C102.043 18.3359 101.965 17.8906 101.809 17.5781C101.652 17.2656 101.43 17.0469 101.141 16.9219C100.859 16.7969 100.52 16.7344 100.121 16.7344C99.6836 16.7344 99.3008 16.8242 98.9727 17.0039C98.6523 17.1836 98.3867 17.4336 98.1758 17.7539C97.9648 18.0664 97.8086 18.4336 97.707 18.8555C97.6055 19.2773 97.5547 19.7305 97.5547 20.2148ZM105.102 19.8281L103.895 19.9805C103.895 19.1523 103.996 18.3828 104.199 17.6719C104.41 16.9609 104.719 16.3359 105.125 15.7969C105.539 15.2578 106.051 14.8398 106.66 14.543C107.27 14.2383 107.973 14.0859 108.77 14.0859C109.379 14.0859 109.934 14.1758 110.434 14.3555C110.934 14.5273 111.359 14.8047 111.711 15.1875C112.07 15.5625 112.344 16.0547 112.531 16.6641C112.727 17.2734 112.824 18.0195 112.824 18.9023V27H109.438V18.9023C109.438 18.3164 109.359 17.8711 109.203 17.5664C109.055 17.2539 108.836 17.0391 108.547 16.9219C108.266 16.7969 107.93 16.7344 107.539 16.7344C107.133 16.7344 106.777 16.8164 106.473 16.9805C106.168 17.1367 105.914 17.3555 105.711 17.6367C105.508 17.918 105.355 18.2461 105.254 18.6211C105.152 18.9883 105.102 19.3906 105.102 19.8281ZM120.887 27H117.172L117.195 24.2578H120.887C121.809 24.2578 122.586 24.0508 123.219 23.6367C123.852 23.2148 124.328 22.6016 124.648 21.7969C124.977 20.9922 125.141 20.0195 125.141 18.8789V18.0469C125.141 17.1719 125.047 16.4023 124.859 15.7383C124.68 15.0742 124.41 14.5156 124.051 14.0625C123.691 13.6094 123.25 13.2695 122.727 13.043C122.203 12.8086 121.602 12.6914 120.922 12.6914H117.102V9.9375H120.922C122.062 9.9375 123.105 10.1328 124.051 10.5234C125.004 10.9062 125.828 11.457 126.523 12.1758C127.219 12.8945 127.754 13.7539 128.129 14.7539C128.512 15.7461 128.703 16.8516 128.703 18.0703V18.8789C128.703 20.0898 128.512 21.1953 128.129 22.1953C127.754 23.1953 127.219 24.0547 126.523 24.7734C125.836 25.4844 125.012 26.0352 124.051 26.4258C123.098 26.8086 122.043 27 120.887 27ZM119.164 9.9375V27H115.648V9.9375H119.164ZM136.883 27.2344C135.898 27.2344 135.016 27.0781 134.234 26.7656C133.453 26.4453 132.789 26.0039 132.242 25.4414C131.703 24.8789 131.289 24.2266 131 23.4844C130.711 22.7344 130.566 21.9375 130.566 21.0938V20.625C130.566 19.6641 130.703 18.7852 130.977 17.9883C131.25 17.1914 131.641 16.5 132.148 15.9141C132.664 15.3281 133.289 14.8789 134.023 14.5664C134.758 14.2461 135.586 14.0859 136.508 14.0859C137.406 14.0859 138.203 14.2344 138.898 14.5312C139.594 14.8281 140.176 15.25 140.645 15.7969C141.121 16.3438 141.48 17 141.723 17.7656C141.965 18.5234 142.086 19.3672 142.086 20.2969V21.7031H132.008V19.4531H138.77V19.1953C138.77 18.7266 138.684 18.3086 138.512 17.9414C138.348 17.5664 138.098 17.2695 137.762 17.0508C137.426 16.832 136.996 16.7227 136.473 16.7227C136.027 16.7227 135.645 16.8203 135.324 17.0156C135.004 17.2109 134.742 17.4844 134.539 17.8359C134.344 18.1875 134.195 18.6016 134.094 19.0781C134 19.5469 133.953 20.0625 133.953 20.625V21.0938C133.953 21.6016 134.023 22.0703 134.164 22.5C134.312 22.9297 134.52 23.3008 134.785 23.6133C135.059 23.9258 135.387 24.168 135.77 24.3398C136.16 24.5117 136.602 24.5977 137.094 24.5977C137.703 24.5977 138.27 24.4805 138.793 24.2461C139.324 24.0039 139.781 23.6406 140.164 23.1562L141.805 24.9375C141.539 25.3203 141.176 25.6875 140.715 26.0391C140.262 26.3906 139.715 26.6797 139.074 26.9062C138.434 27.125 137.703 27.2344 136.883 27.2344ZM148.156 24.5391L150.969 14.3203H154.496L150.219 27H148.086L148.156 24.5391ZM146.223 14.3203L149.047 24.5508L149.105 27H146.961L142.684 14.3203H146.223ZM165.348 27V29.5664H154.707V27H165.348ZM176.797 21.3398H180.301C180.23 22.4883 179.914 23.5078 179.352 24.3984C178.797 25.2891 178.02 25.9844 177.02 26.4844C176.027 26.9844 174.832 27.2344 173.434 27.2344C172.34 27.2344 171.359 27.0469 170.492 26.6719C169.625 26.2891 168.883 25.7422 168.266 25.0312C167.656 24.3203 167.191 23.4609 166.871 22.4531C166.551 21.4453 166.391 20.3164 166.391 19.0664V17.8828C166.391 16.6328 166.555 15.5039 166.883 14.4961C167.219 13.4805 167.695 12.6172 168.312 11.9062C168.938 11.1953 169.684 10.6484 170.551 10.2656C171.418 9.88281 172.387 9.69141 173.457 9.69141C174.879 9.69141 176.078 9.94922 177.055 10.4648C178.039 10.9805 178.801 11.6914 179.34 12.5977C179.887 13.5039 180.215 14.5352 180.324 15.6914H176.809C176.77 15.0039 176.633 14.4219 176.398 13.9453C176.164 13.4609 175.809 13.0977 175.332 12.8555C174.863 12.6055 174.238 12.4805 173.457 12.4805C172.871 12.4805 172.359 12.5898 171.922 12.8086C171.484 13.0273 171.117 13.3594 170.82 13.8047C170.523 14.25 170.301 14.8125 170.152 15.4922C170.012 16.1641 169.941 16.9531 169.941 17.8594V19.0664C169.941 19.9492 170.008 20.7266 170.141 21.3984C170.273 22.0625 170.477 22.625 170.75 23.0859C171.031 23.5391 171.391 23.8828 171.828 24.1172C172.273 24.3438 172.809 24.457 173.434 24.457C174.168 24.457 174.773 24.3398 175.25 24.1055C175.727 23.8711 176.09 23.5234 176.34 23.0625C176.598 22.6016 176.75 22.0273 176.797 21.3398ZM181.859 20.7891V20.543C181.859 19.6133 181.992 18.7578 182.258 17.9766C182.523 17.1875 182.91 16.5039 183.418 15.9258C183.926 15.3477 184.551 14.8984 185.293 14.5781C186.035 14.25 186.887 14.0859 187.848 14.0859C188.809 14.0859 189.664 14.25 190.414 14.5781C191.164 14.8984 191.793 15.3477 192.301 15.9258C192.816 16.5039 193.207 17.1875 193.473 17.9766C193.738 18.7578 193.871 19.6133 193.871 20.543V20.7891C193.871 21.7109 193.738 22.5664 193.473 23.3555C193.207 24.1367 192.816 24.8203 192.301 25.4062C191.793 25.9844 191.168 26.4336 190.426 26.7539C189.684 27.0742 188.832 27.2344 187.871 27.2344C186.91 27.2344 186.055 27.0742 185.305 26.7539C184.562 26.4336 183.934 25.9844 183.418 25.4062C182.91 24.8203 182.523 24.1367 182.258 23.3555C181.992 22.5664 181.859 21.7109 181.859 20.7891ZM185.234 20.543V20.7891C185.234 21.3203 185.281 21.8164 185.375 22.2773C185.469 22.7383 185.617 23.1445 185.82 23.4961C186.031 23.8398 186.305 24.1094 186.641 24.3047C186.977 24.5 187.387 24.5977 187.871 24.5977C188.34 24.5977 188.742 24.5 189.078 24.3047C189.414 24.1094 189.684 23.8398 189.887 23.4961C190.09 23.1445 190.238 22.7383 190.332 22.2773C190.434 21.8164 190.484 21.3203 190.484 20.7891V20.543C190.484 20.0273 190.434 19.543 190.332 19.0898C190.238 18.6289 190.086 18.2227 189.875 17.8711C189.672 17.5117 189.402 17.2305 189.066 17.0273C188.73 16.8242 188.324 16.7227 187.848 16.7227C187.371 16.7227 186.965 16.8242 186.629 17.0273C186.301 17.2305 186.031 17.5117 185.82 17.8711C185.617 18.2227 185.469 18.6289 185.375 19.0898C185.281 19.543 185.234 20.0273 185.234 20.543ZM203.434 24.2344V9H206.832V27H203.773L203.434 24.2344ZM195.418 20.8125V20.5664C195.418 19.5977 195.527 18.7188 195.746 17.9297C195.965 17.1328 196.285 16.4492 196.707 15.8789C197.129 15.3086 197.648 14.8672 198.266 14.5547C198.883 14.2422 199.586 14.0859 200.375 14.0859C201.117 14.0859 201.766 14.2422 202.32 14.5547C202.883 14.8672 203.359 15.3125 203.75 15.8906C204.148 16.4609 204.469 17.1367 204.711 17.918C204.953 18.6914 205.129 19.5391 205.238 20.4609V21C205.129 21.8828 204.953 22.7031 204.711 23.4609C204.469 24.2188 204.148 24.8828 203.75 25.4531C203.359 26.0156 202.883 26.4531 202.32 26.7656C201.758 27.0781 201.102 27.2344 200.352 27.2344C199.562 27.2344 198.859 27.0742 198.242 26.7539C197.633 26.4336 197.117 25.9844 196.695 25.4062C196.281 24.8281 195.965 24.1484 195.746 23.3672C195.527 22.5859 195.418 21.7344 195.418 20.8125ZM198.793 20.5664V20.8125C198.793 21.3359 198.832 21.8242 198.91 22.2773C198.996 22.7305 199.133 23.1328 199.32 23.4844C199.516 23.8281 199.766 24.0977 200.07 24.293C200.383 24.4805 200.762 24.5742 201.207 24.5742C201.785 24.5742 202.262 24.4453 202.637 24.1875C203.012 23.9219 203.297 23.5586 203.492 23.0977C203.695 22.6367 203.812 22.1055 203.844 21.5039V19.9688C203.82 19.4766 203.75 19.0352 203.633 18.6445C203.523 18.2461 203.359 17.9062 203.141 17.625C202.93 17.3438 202.664 17.125 202.344 16.9688C202.031 16.8125 201.66 16.7344 201.23 16.7344C200.793 16.7344 200.418 16.8359 200.105 17.0391C199.793 17.2344 199.539 17.5039 199.344 17.8477C199.156 18.1914 199.016 18.5977 198.922 19.0664C198.836 19.5273 198.793 20.0273 198.793 20.5664ZM215.305 27.2344C214.32 27.2344 213.438 27.0781 212.656 26.7656C211.875 26.4453 211.211 26.0039 210.664 25.4414C210.125 24.8789 209.711 24.2266 209.422 23.4844C209.133 22.7344 208.988 21.9375 208.988 21.0938V20.625C208.988 19.6641 209.125 18.7852 209.398 17.9883C209.672 17.1914 210.062 16.5 210.57 15.9141C211.086 15.3281 211.711 14.8789 212.445 14.5664C213.18 14.2461 214.008 14.0859 214.93 14.0859C215.828 14.0859 216.625 14.2344 217.32 14.5312C218.016 14.8281 218.598 15.25 219.066 15.7969C219.543 16.3438 219.902 17 220.145 17.7656C220.387 18.5234 220.508 19.3672 220.508 20.2969V21.7031H210.43V19.4531H217.191V19.1953C217.191 18.7266 217.105 18.3086 216.934 17.9414C216.77 17.5664 216.52 17.2695 216.184 17.0508C215.848 16.832 215.418 16.7227 214.895 16.7227C214.449 16.7227 214.066 16.8203 213.746 17.0156C213.426 17.2109 213.164 17.4844 212.961 17.8359C212.766 18.1875 212.617 18.6016 212.516 19.0781C212.422 19.5469 212.375 20.0625 212.375 20.625V21.0938C212.375 21.6016 212.445 22.0703 212.586 22.5C212.734 22.9297 212.941 23.3008 213.207 23.6133C213.48 23.9258 213.809 24.168 214.191 24.3398C214.582 24.5117 215.023 24.5977 215.516 24.5977C216.125 24.5977 216.691 24.4805 217.215 24.2461C217.746 24.0039 218.203 23.6406 218.586 23.1562L220.227 24.9375C219.961 25.3203 219.598 25.6875 219.137 26.0391C218.684 26.3906 218.137 26.6797 217.496 26.9062C216.855 27.125 216.125 27.2344 215.305 27.2344ZM229.285 23.4961C229.285 23.2539 229.215 23.0352 229.074 22.8398C228.934 22.6445 228.672 22.4648 228.289 22.3008C227.914 22.1289 227.371 21.9727 226.66 21.832C226.02 21.6914 225.422 21.5156 224.867 21.3047C224.32 21.0859 223.844 20.8242 223.438 20.5195C223.039 20.2148 222.727 19.8555 222.5 19.4414C222.273 19.0195 222.16 18.5391 222.16 18C222.16 17.4688 222.273 16.9688 222.5 16.5C222.734 16.0312 223.066 15.6172 223.496 15.2578C223.934 14.8906 224.465 14.6055 225.09 14.4023C225.723 14.1914 226.434 14.0859 227.223 14.0859C228.324 14.0859 229.27 14.2617 230.059 14.6133C230.855 14.9648 231.465 15.4492 231.887 16.0664C232.316 16.6758 232.531 17.3711 232.531 18.1523H229.156C229.156 17.8242 229.086 17.5312 228.945 17.2734C228.812 17.0078 228.602 16.8008 228.312 16.6523C228.031 16.4961 227.664 16.418 227.211 16.418C226.836 16.418 226.512 16.4844 226.238 16.6172C225.965 16.7422 225.754 16.9141 225.605 17.1328C225.465 17.3438 225.395 17.5781 225.395 17.8359C225.395 18.0312 225.434 18.207 225.512 18.3633C225.598 18.5117 225.734 18.6484 225.922 18.7734C226.109 18.8984 226.352 19.0156 226.648 19.125C226.953 19.2266 227.328 19.3203 227.773 19.4062C228.688 19.5938 229.504 19.8398 230.223 20.1445C230.941 20.4414 231.512 20.8477 231.934 21.3633C232.355 21.8711 232.566 22.5391 232.566 23.3672C232.566 23.9297 232.441 24.4453 232.191 24.9141C231.941 25.3828 231.582 25.793 231.113 26.1445C230.645 26.4883 230.082 26.7578 229.426 26.9531C228.777 27.1406 228.047 27.2344 227.234 27.2344C226.055 27.2344 225.055 27.0234 224.234 26.6016C223.422 26.1797 222.805 25.6445 222.383 24.9961C221.969 24.3398 221.762 23.668 221.762 22.9805H224.961C224.977 23.4414 225.094 23.8125 225.312 24.0938C225.539 24.375 225.824 24.5781 226.168 24.7031C226.52 24.8281 226.898 24.8906 227.305 24.8906C227.742 24.8906 228.105 24.832 228.395 24.7148C228.684 24.5898 228.902 24.4258 229.051 24.2227C229.207 24.0117 229.285 23.7695 229.285 23.4961Z" fill="white"/>
<path d="M27.7998 12.9434C33.12 12.9435 38 18.2111 38 25.4717C38 32.7323 33.12 37.9999 27.7998 38C22.4795 38 17.5996 32.7324 17.5996 25.4717C17.5996 18.211 22.4795 12.9434 27.7998 12.9434Z" stroke="white" stroke-width="4"/>
<path d="M25.2148 26.0186H5.18555L15.1992 4.70312L25.2148 26.0186Z" stroke="white" stroke-width="4"/>
</svg>
